<svg id="camp" xmlns="http://www.w3.org/2000/svg" viewBox="0 0 120 60">
  <defs>
    <style>
      .cls-1 {
        fill: #fff;
      }
    </style>
  </defs>
  <title>icons</title>
  <path id="camp-2" data-name="camp" class="cls-1" d="M40,20.31,37.8,16H40ZM57.61,15h2.54l-2.73-2H41.82l-3.28,2H57.61ZM58,20.31,60.69,16H58ZM13,26c-.12,0-.24.18-.35.22l.9-8.07L48.84,6.29l24,7.76c-.74,0-1.3,0-1.63,0C69,14.58,66,23,66,23h-1.1s.86-2.92-.73-2.78c-2.36.21-3,0-3.48,2-.32,1.36,0,1.76.41,1.8s4.21.59,4.21.59A5,5,0,0,0,64.22,26H13ZM36.41,15.83s0,.05.06.08,0,0,0,0l4,6.39,0,.05s.08.14.12.17,0,.14.05.15.14.28.22.28H57.61c.08,0,.15-.25.22-.28s0-.25.05-.26a.49.49,0,0,0,.12-.12l0,0,4-6.37a.47.47,0,0,0,0-.09h0s0,0,0,0a.47.47,0,0,0,0-.28v0a.48.48,0,0,0,0-.1.49.49,0,0,0-.13-.13v0l0,0,0,0-3.93-3.14A.5.5,0,0,0,57.6,12H41.66a.5.5,0,0,0-.28.08l-4.78,3.18s-.06.08-.1.12l-.05.05v0a.64.64,0,0,0,0,.27S36.4,15.8,36.41,15.83ZM22,50H41V45H22ZM41,28H22V43H41Zm74,24H87.88l-.39-5H69v3.55A1.36,1.36,0,0,1,67.57,52H62.16c-.64,0-1.24,0-1.37-2.92s.73-13.9.73-13.9a21.56,21.56,0,0,1-.18-4.25A16.4,16.4,0,0,1,62.85,28H43V51.33a.61.61,0,0,1-.62.67H20.62a.61.61,0,0,1-.62-.67V28H13a.94.94,0,0,1-.54-.14L9.82,52H5a.5.5,0,0,0,0,1H115a.5.5,0,0,0,0-1ZM69.27,24.31c.78,0,8.83-1,15.43-1s14.64,1,15.43,1,.54-.67.54-.67-1.78-4.5-2.74-6.21a1.51,1.51,0,0,0-1.14-.75,200.4,200.4,0,0,0-24.16,0,1.51,1.51,0,0,0-1.14.75c-1,1.71-2.74,6.21-2.74,6.21S68.48,24.27,69.27,24.31ZM94.85,29H93.78c-.38,0-.69.52-.69.9l-.27,4.32a.77.77,0,0,0,.69.78h1.08a.72.72,0,0,0,.69-.73l.28-4.33C95.54,29.57,95.23,29,94.85,29Zm-3.2,0H90.58c-.38,0-.69.52-.69.9l-.21,4.32a.77.77,0,0,0,.69.78h1.08a.72.72,0,0,0,.69-.73l.21-4.33C92.34,29.57,92,29,91.66,29Zm-3.19,0H87.39c-.38,0-.69.52-.69.9l-.14,4.32a.77.77,0,0,0,.69.78h1.08a.72.72,0,0,0,.69-.73l.14-4.33C89.15,29.57,88.84,29,88.46,29ZM85,29.69a.69.69,0,0,0-.69-.69h-.63a.69.69,0,0,0-.69.69v4.63a.69.69,0,0,0,.69.69h.63a.69.69,0,0,0,.69-.69Zm-2.31.21c0-.38-.31-.9-.69-.9H80.93c-.38,0-.69.52-.69.9l.14,4.32a.77.77,0,0,0,.69.78h1.08a.77.77,0,0,0,.69-.78Zm-3.19,0c0-.38-.31-.9-.69-.9H77.73c-.38,0-.69.52-.69.9l.21,4.32a.77.77,0,0,0,.69.78H79a.77.77,0,0,0,.69-.78Zm-3.19,0c0-.38-.31-.9-.69-.9H74.54c-.38,0-.69.52-.69.9l.28,4.32a.77.77,0,0,0,.69.78h1.08a.77.77,0,0,0,.69-.78ZM64,30.47A1.71,1.71,0,0,0,65.14,32s5.08.73,6.18.73.73-.78.73-.78l-.73-3.07L65,28.67C63.76,28.62,63.93,29.56,64,30.47Zm7.1,10.06a4,4,0,0,0-3.85,1.42c-1.58,1.95-1.15,2.31-.34,2.31s2.89.41,3.44-.69a22.87,22.87,0,0,0,1-2.22S71.62,40.67,71.14,40.53ZM72.4,38c0-.87-.59-1-1-1-1.65-.29-5.84-.69-6.66-.71s-.64.3-.46.85.4.72.64.76C66.87,38.15,72.4,38.53,72.4,38Zm23.7,4a2,2,0,0,0-1.56-1H74.85a2,2,0,0,0-1.56,1c-.77,1-1.33,2.5.18,2.52,1.26,0,21.19,0,22.44,0C97.43,44.46,96.88,43,96.1,42Zm6,0a4,4,0,0,0-3.85-1.42c-.48.14-.23.82-.23.82a22.8,22.8,0,0,0,1,2.22c.55,1.1,2.63.69,3.44.69S103.68,43.9,102.1,41.95Zm2.52-5.68c-.82,0-5,.42-6.66.71-.37.06-1,.16-1,1,0,.52,5.52.14,7.44-.14.25,0,.46-.21.64-.76S105.45,36.25,104.62,36.27Zm-.28-7.6-6.27.23L97.34,32s-.37.78.73.78,6.18-.73,6.18-.73a1.71,1.71,0,0,0,1.1-1.54C105.46,29.56,105.63,28.62,104.35,28.67Z"/>
</svg>
