<svg id="camp" xmlns="http://www.w3.org/2000/svg" viewBox="0 0 120 60">
  <defs>
    <style>
      .cls-1 {
        fill: #fff;
      }
    </style>
  </defs>
  <title>icons</title>
  <path id="gun" class="cls-1" d="M73.23,11.05a3.07,3.07,0,0,0,5.71,0c.5-.75.75-1.05,1.18-1.05s.81.22,1.3.71a3.48,3.48,0,0,0,5.42,0c.49-.49.73-.71,1.29-.71h1.05a2.5,2.5,0,0,0,2.45,2h2A2.4,2.4,0,0,0,96,9.5v-1A2.4,2.4,0,0,0,93.62,6h-2a2.5,2.5,0,0,0-2.45,2H88.12a3.56,3.56,0,0,0-2.71,1.29c-.49.49-.73.71-1.29.71s-.8-.22-1.29-.71A3.56,3.56,0,0,0,80.12,8a3.4,3.4,0,0,0-2.83,1.95c-.5.75-.75,1.05-1.17,1.05s-.73-.31-1.23-1.05S74,8,72,8V6.59a1.77,1.77,0,0,0-1.61-1.32c-.25,0-.51-2.46-2.52-2.46C66.33,2.82,65,5,63.89,5H60c-.52,0-.92,0-1.23,1H43.48c-.31-1-.77-1-1.29-1H30.57a1.82,1.82,0,0,0-1.64,1.37l-.08.4s-2.29,1.66-2.29,3.37a3,3,0,0,0,.86,2.25c-.44,1.71-.88,3.44-1.35,5.14a1.68,1.68,0,0,0,.77,1.89l1.56.82c.87.52,1.91.77,1.63,1.89-2,7.12-2.89,14.26-4.86,21.4C24.82,44.77,25,46,24,47.24v.06c-1,2.1,1.46,3.7,3.33,3.7H39.2c.61,0,.89-2.17.71-2.74-.06-.18-.9-1.32-.9-1.73v0c0-.16-.27-.37-.17-.6L42.37,33H54.63a3,3,0,0,0,2.59-2h0c1-3,.85-3,1.91-6h9A2.27,2.27,0,0,0,70,22.9V21h.44c.77,0,1.56,0,1.56-1V18c1,0,.73.31,1.23,1.05a3.07,3.07,0,0,0,5.71,0c.5-.75.75-1.05,1.18-1.05s.81.22,1.3.71a3.48,3.48,0,0,0,5.42,0c.49-.49.73-.71,1.29-.71h1.05a2.5,2.5,0,0,0,2.45,2h2A2.4,2.4,0,0,0,96,17.5v-1A2.4,2.4,0,0,0,93.62,14h-2a2.5,2.5,0,0,0-2.45,2H88.12a3.56,3.56,0,0,0-2.71,1.29c-.49.49-.73.71-1.29.71s-.8-.22-1.29-.71A3.56,3.56,0,0,0,80.12,16a3.4,3.4,0,0,0-2.83,1.95c-.5.75-.75,1.05-1.17,1.05s-.73-.31-1.23-1.05S74,16,72,16V10C73,10,72.73,10.31,73.23,11.05ZM94,9.5a.5.5,0,0,1-.5.5h-2a.5.5,0,0,1-.5-.5v-1a.5.5,0,0,1,.5-.5h2a.5.5,0,0,1,.5.5ZM57.41,23l-1.93,5.36A2.78,2.78,0,0,1,52.92,30h-8c-1.06,0-1.77-.62-1.58-1.66l1-5.24c.28-1.41,2-1.81,1.88-1.78a13.2,13.2,0,0,0,1.23,6.84,1,1,0,0,0,1.16.56,1.13,1.13,0,0,0,.65-1.34A11,11,0,0,1,49,21h7.12A1.4,1.4,0,0,1,57.41,23ZM94,17.5a.5.5,0,0,1-.5.5h-2a.5.5,0,0,1-.5-.5v-1a.5.5,0,0,1,.5-.5h2a.5.5,0,0,1,.5.5Z"/>
</svg>
