<svg id="camp" xmlns="http://www.w3.org/2000/svg" viewBox="0 0 120 60">
  <defs>
    <style>
      .cls-1 {
        fill: #fff;
      }
    </style>
  </defs>
  <title>icons</title>
  <path id="tools" class="cls-1" d="M81.77,53.9a7.71,7.71,0,0,0-3-14.83h0L55.14,15.43A11.56,11.56,0,0,0,39.32,1.53L46,8.21V14H40.21L33.53,7.32a11.56,11.56,0,0,0,13.9,15.83L71.07,46.79a7.69,7.69,0,0,0,4,6.76c-4.43-.17-9.58-.27-15.08-.27-5.95,0-11.49.12-16.15.31L58.94,38.51a1.93,1.93,0,0,0,.53-1l.07-.35-1.64-1.64-6.43-6.43-1.64-1.64-.35.07a1.93,1.93,0,0,0-1,.53L33.06,43.49a1.93,1.93,0,0,0-.56,1.36,10.23,10.23,0,0,0,6.45,9c-5.52.36-8.95.87-8.95,1.42,0,1.1,13.43,2,30,2s30-.9,30-2C90,54.74,86.87,54.26,81.77,53.9Zm-3-9a1.93,1.93,0,1,1-1.93,1.93A1.93,1.93,0,0,1,78.79,44.86Zm-5.1-3.18a1,1,0,0,1-1.36,0L55,24.32A1,1,0,0,1,56.32,23L73.68,40.32A1,1,0,0,1,73.68,41.68ZM39.53,46.1,51.1,34.53a1,1,0,0,1,1.36,1.36L40.9,47.47a1,1,0,1,1-1.36-1.36ZM65.29,23.64,66.65,25l11-11h1.13a1.93,1.93,0,0,0,1.36-.56l5.79-5.79a1.93,1.93,0,0,0,0-2.73L82.08,1.06a1.93,1.93,0,0,0-2.73,0L73.56,6.85A1.93,1.93,0,0,0,73,8.21V9.34l-11,11,1.36,1.36ZM80.71,2.43l3.86,3.86L83.32,7.53,79.47,3.68Z"/>
</svg>
