<svg id="camp" xmlns="http://www.w3.org/2000/svg" viewBox="0 0 120 60">
  <defs>
    <style>
      .cls-1 {
        fill: #fff;
      }
    </style>
  </defs>
  <title>icons</title>
  <path id="rifle" class="cls-1" d="M44,14h7v4H44Zm7.16,19.2a1,1,0,0,1-1,.8H45a1,1,0,0,1-1-1V29h2l1,3h1V29h4ZM68,16l-3,2H53V14h2v1H65V10H55v1H50V10H46v1H39V10H31v5h8V14h2v4H38v6.81l-5.5,3-3.62-4L3.68,27a4.17,4.17,0,0,0-3.68,4V47.56c0,.52.67.94,1.19.94a2.49,2.49,0,0,0,1.13-.27L26.94,34,30,37h3l6-8h3v5a2,2,0,0,0,2,2h6.49a2,2,0,0,0,1.92-1.45L54,29h3.5l4,10H68V27l19.25-.75L91,24h13c1.1,0,2-1.4,2-2.5V20h14V16Zm18,8L68.5,25l.5-2H87.5Z"/>
</svg>
